<svg xmlns="http://www.w3.org/2000/svg" width="17.621" height="23.361" viewBox="0 0 17.621 23.361">
  <g id="country" transform="translate(0.2 0.2)">
    <g id="Group_1105" data-name="Group 1105" transform="translate(0)">
      <path id="Path_985" data-name="Path 985" d="M80.836,2.771a.666.666,0,0,0-.67,0,5.335,5.335,0,0,1-2.621.674,5,5,0,0,1-3.6-1.416A5.771,5.771,0,0,0,69.788.383,5.993,5.993,0,0,0,66.294,1.47V1.148a1.148,1.148,0,1,0-2.3,0V21.813a1.148,1.148,0,1,0,2.3,0v-9.95a.67.67,0,0,0,.348-.138,5.189,5.189,0,0,1,3.146-1.01,5.005,5.005,0,0,1,3.6,1.416,5.767,5.767,0,0,0,4.152,1.646A5.981,5.981,0,0,0,80.89,12.8a.765.765,0,0,0,.329-.651V3.444A.766.766,0,0,0,80.836,2.771ZM65.529,21.813a.383.383,0,0,1-.765,0V1.148a.383.383,0,0,1,.765,0Zm14.925-9.647a5.292,5.292,0,0,1-2.908.846,5,5,0,0,1-3.6-1.416,5.771,5.771,0,0,0-4.16-1.646,5.989,5.989,0,0,0-3.494,1.079V2.457a5.067,5.067,0,0,1,3.494-1.309,5.005,5.005,0,0,1,3.6,1.416,5.767,5.767,0,0,0,4.152,1.646A6.123,6.123,0,0,0,80.453,3.5v8.668Z" transform="translate(-63.998)" stroke="#000" stroke-width="0.4"/>
    </g>
  </g>
</svg>
