<svg xmlns="http://www.w3.org/2000/svg" width="21.829" height="25.188" viewBox="0 0 21.829 25.188">
  <g id="hospital_2_" data-name="hospital (2)" transform="translate(-55.241 0.2)">
    <g id="Group_9629" data-name="Group 9629" transform="translate(55.441 0)">
      <path id="Path_1153" data-name="Path 1153" d="M187.093,125.2h-1.119v-1.14a1.588,1.588,0,0,0-1.581-1.591h-1.806a1.588,1.588,0,0,0-1.581,1.591v1.14h-1.118a1.588,1.588,0,0,0-1.581,1.591v1.828a1.588,1.588,0,0,0,1.581,1.591h1.118v1.14a1.588,1.588,0,0,0,1.581,1.591h1.806a1.588,1.588,0,0,0,1.581-1.591v-1.14h1.119a1.588,1.588,0,0,0,1.581-1.591V126.8A1.588,1.588,0,0,0,187.093,125.2Zm.247,3.419a.252.252,0,0,1-.247.257h-1.786a.667.667,0,0,0-.667.667v1.808a.252.252,0,0,1-.247.257h-1.806a.252.252,0,0,1-.247-.257v-1.808a.667.667,0,0,0-.667-.667h-1.786a.252.252,0,0,1-.247-.257V126.8a.252.252,0,0,1,.247-.257h1.786a.667.667,0,0,0,.667-.667v-1.807a.252.252,0,0,1,.247-.257h1.806a.252.252,0,0,1,.247.257v1.807a.667.667,0,0,0,.667.667h1.786a.252.252,0,0,1,.247.257Z" transform="translate(-172.777 -116.974)" stroke="#000" stroke-width="0.2"/>
      <path id="Path_1154" data-name="Path 1154" d="M69.925,21.619c1.948-1.733,3.978-3.546,4.108-3.686a10.669,10.669,0,0,0-.3-14.8l-.005-.005-.007-.007A10.7,10.7,0,0,0,58.277,17.932c.13.14,4.108,3.687,4.108,3.687L64.1,23.151l1.7,1.5a.534.534,0,0,0,.709,0l2.214-1.966Zm-3.77,1.921c-2.85-2.53-6.853-6.092-7.1-6.337A9.634,9.634,0,0,1,72.965,3.875l0,0,.007.007A9.571,9.571,0,0,1,73.252,17.2C73.008,17.448,69.005,21.01,66.155,23.539Z" transform="translate(-55.441 0)" stroke="#000" stroke-width="0.4"/>
    </g>
  </g>
</svg>
