<svg id="Arabic" xmlns="http://www.w3.org/2000/svg" width="34.11" height="34.11" viewBox="0 0 34.11 34.11">
  <ellipse id="Ellipse_123" data-name="Ellipse 123" cx="17.054" cy="17.054" rx="17.054" ry="17.054" transform="translate(0.001 0.001)" fill="#fff"/>
  <path id="Path_943" data-name="Path 943" d="M324.728,157.875H314.22a47.153,47.153,0,0,1,.009,11.305h10.522a17.071,17.071,0,0,0-.022-11.305Z" transform="translate(-291.593 -146.506)" fill="#efecec"/>
  <path id="Path_944" data-name="Path 944" d="M262.155,12.271h10.508a.116.116,0,0,0-.005-.015A17.065,17.065,0,0,0,258.115.972C260.725,2.4,261.488,6.937,262.155,12.271Z" transform="translate(-239.528 -0.902)" fill="#c42b27"/>
  <path id="Path_945" data-name="Path 945" d="M258.115,326.236a17.066,17.066,0,0,0,14.555-11.317c.006-.016.01-.033.016-.048H262.164C261.5,320.234,260.736,324.8,258.115,326.236Z" transform="translate(-239.528 -292.197)" fill="#0b0b0b"/>
  <path id="Path_946" data-name="Path 946" d="M0,163.562a17.03,17.03,0,0,0,.952,5.619H23.514a47.158,47.158,0,0,0-.008-11.305H.975A17.02,17.02,0,0,0,0,163.562Z" transform="translate(0 -146.506)" fill="#efefef"/>
  <path id="Path_947" data-name="Path 947" d="M13.538,11.354l-.005.015H36.064C35.4,6.035,33.756,1.5,31.145.07,30.64.025,30.13,0,29.613,0A17.058,17.058,0,0,0,13.538,11.354Z" transform="translate(-12.558 0)" fill="#cc3434"/>
  <path id="Path_948" data-name="Path 948" d="M35.781,314.871H13.219l.016.048a17.06,17.06,0,0,0,16.086,11.388c.517,0,1.027-.025,1.532-.071C33.475,324.8,35.119,320.234,35.781,314.871Z" transform="translate(-12.267 -292.197)" fill="#151515"/>
  <g id="Group_1083" data-name="Group 1083" transform="translate(13.679 13.123)">
    <path id="Path_949" data-name="Path 949" d="M196.658,190.14a4.607,4.607,0,0,0-.759-.025c-.047.027-.041.108-.062.162.024.05.075.023.125.062.078.075.131.176.249.211-.1.106-.1.316-.249.374.025.245-.134.288-.374.336a14.619,14.619,0,0,1-4.155.087,2.075,2.075,0,0,1-.71-.186.232.232,0,0,1-.062-.212c-.144-.072-.146-.286-.261-.386.161-.055.192-.239.374-.274a.557.557,0,0,0-.038-.174,4.994,4.994,0,0,0-.784.025c.02-.278.026-.594.05-.92.032-.436.027-.947.062-1.381.018-.221.011-.45.025-.672.026-.42.007-.838.037-1.232.032-.425.017-.879.05-1.281s.148-.749.634-.71c.577.048.939.531,1.567.535a1.64,1.64,0,0,0,.423-1.405c-.037-.242-.294-.593-.547-.46-.037-.409.352-.354.609-.224.078-.049.1-.118.187-.137a.936.936,0,0,1,.585.112.806.806,0,0,1,.286.722c0,.174-.039.347-.025.522a1.567,1.567,0,0,0,.311.858c.584.054,1.013-.466,1.579-.523a.572.572,0,0,1,.547.224,10.863,10.863,0,0,1,.162,1.928c.031.4.013.822.037,1.232C196.59,188.256,196.617,189.187,196.658,190.14Zm-2.8-6.506a3.628,3.628,0,0,0-.05-1.008c-.055-.052-.087-.128-.162-.162h-.186c-.093.05-.127.154-.224.174-.23.049-.248-.169-.423-.236-.045-.018-.107-.008-.162-.025-.167-.051-.265-.11-.348.125.3-.018.577.081.647.336-.174-.048-.125.108-.112.211a1.848,1.848,0,0,1-.224,1.207c-.083.134-.189.239-.249.361.181-.034.344-.023.435-.137.122-.152.1-.477.174-.659a1.344,1.344,0,0,1-.3.883c.443-.062.52-.432.56-.883a1.173,1.173,0,0,1-.1.622c.057.072.09.168.174.212a.607.607,0,0,0,.162-.224.946.946,0,0,1-.075-.61c-.006.479.125.821.535.883a1.238,1.238,0,0,1-.274-.9,2.012,2.012,0,0,0,.162.684.885.885,0,0,0,.436.125A1.731,1.731,0,0,1,193.859,183.634Zm-.783-1.132v.05c.03,0,.027.023.062.013a.077.077,0,0,0,.013-.062A.061.061,0,0,0,193.076,182.5Zm-2.4,1.48a.475.475,0,0,0-.423.523c.12-.041.235-.154.361-.149-.067,1.872-.149,3.575-.224,5.424a1.473,1.473,0,0,0-.323.311h.672c.035-.3.369-.358.647-.274.132-.456.266-.911.386-1.381-.124.076-.187.211-.311.286.045-1.2.105-2.362.149-3.582a1.094,1.094,0,0,0,.808.112,2.483,2.483,0,0,0,.908-.4,2.03,2.03,0,0,0,1.12.423,1.353,1.353,0,0,0,.572-.112c.026,1.22.113,2.413.137,3.57a3.487,3.487,0,0,0-.3-.287c.11.471.253.908.373,1.369.29-.092.61-.012.659.274.219-.008.472.016.671-.013-.078-.139-.271-.179-.323-.323a2.517,2.517,0,0,1-.025-.622c-.068-1.5-.164-3.281-.2-4.788a3.781,3.781,0,0,1,.361.162c-.028-.3-.152-.5-.435-.523-.644-.043-1.015.549-1.667.535,0,.079.127.1.112.149a1.894,1.894,0,0,1-.435-.062c-.012.069.113.1.124.186a1.11,1.11,0,0,1-.584-.286,1.153,1.153,0,0,1-.187.236,1.477,1.477,0,0,0-.187-.236.811.811,0,0,1-.572.274c.036-.063.111-.087.124-.174a1.128,1.128,0,0,1-.435.05c.039-.045.1-.062.112-.137C191.724,184.534,191.293,183.934,190.675,183.982Zm1.206,1.344a3.187,3.187,0,0,0,1.443,2.873,3.245,3.245,0,0,0,1.406-2.873,2.564,2.564,0,0,1-1.02-.187c-.153-.066-.3-.187-.423-.224A2.209,2.209,0,0,1,191.881,185.326Zm.025.908c-.012.6-.108,1.342-.062,1.966a4.229,4.229,0,0,0,.112-1.206,1.637,1.637,0,0,0-.037-.8A.059.059,0,0,1,191.906,186.234Zm2.762,1.12a1.987,1.987,0,0,0,.124.858c.013-.662-.071-1.35-.074-2-.016,0-.017-.015-.037-.012A5.116,5.116,0,0,0,194.668,187.354Zm-2.563.709c.107-.121.227-.229.323-.361a.962.962,0,0,0-.224-.634C192.166,187.387,191.858,187.8,192.105,188.063Zm2.09-.349c.117.108.217.3.348.349.186-.3-.082-.627-.111-.971-.016,0-.018-.016-.038-.012A.99.99,0,0,0,194.195,187.714Zm-1.667.56a3.451,3.451,0,0,0,.311-.4c-.155-.123-.267-.288-.41-.423C192.461,187.728,192.479,188.016,192.528,188.274Zm1.257-.386a2.1,2.1,0,0,0,.323.386c.025-.269.046-.543.087-.8,0-.015,0-.029-.025-.025A4.263,4.263,0,0,1,193.784,187.888Zm-1.717.249c-.015-.08-.057-.133-.075-.211a1.706,1.706,0,0,0-.174.547c-.02.069-.068.126-.062.2.142-.061.2-.206.348-.261a3.1,3.1,0,0,0,.124.323c.115-.055.11-.23.212-.3.056.2.115.4.186.585.132-.112.284-.206.323-.411-.075-.17-.143-.346-.211-.522-.1.069-.165.241-.249.286a1.922,1.922,0,0,0-.087-.6A2.3,2.3,0,0,1,192.068,188.137Zm2.065.249c-.091-.092-.153-.211-.249-.3-.036.082-.078.162-.112.249a1.076,1.076,0,0,0-.1.274c-.009.2.206.287.323.411a3.559,3.559,0,0,1,.162-.585c.077.1.112.237.224.3.057-.1.1-.226.149-.336a3.317,3.317,0,0,0,.323.274,4.365,4.365,0,0,0-.224-.759.981.981,0,0,1-.1.224,3.336,3.336,0,0,0-.336-.348A3.951,3.951,0,0,0,194.133,188.386Zm-1.269-.472c-.2.144.022.435.1.6.035-.144.068-.289.1-.436C192.995,188.023,192.929,187.969,192.864,187.913Zm.7.174a1.493,1.493,0,0,0,.112.423c.07-.147.121-.311.186-.461-.035-.051-.058-.116-.124-.137C193.7,188,193.6,188.006,193.56,188.087Zm-1.505.373a1.27,1.27,0,0,1-.323.274c-.087.251.093.464.174.659.113-.082.162-.229.274-.311a1.879,1.879,0,0,0,.149.423c.122-.086.192-.288.31-.336a.938.938,0,0,0,.1.386c.044-.238.1-.463.149-.7-.1.02-.174.174-.274.237-.069-.18-.114-.383-.186-.56-.1.068-.111.221-.2.3A1.159,1.159,0,0,0,192.055,188.46Zm2.313.374c-.071-.1-.113-.235-.224-.3-.045.187-.1.369-.136.56-.1-.059-.173-.217-.274-.237a3.238,3.238,0,0,0,.174.709,2.289,2.289,0,0,1,.087-.41c.112.108.17.269.311.348.039-.148.092-.281.137-.423.105.09.155.235.274.311.069-.2.244-.386.174-.646-.129-.082-.226-.2-.348-.287C194.47,188.57,194.444,188.726,194.369,188.834Zm-1.355.982c-.064.036-.109.09-.174.125-.026-.031-.1-.133-.124-.087s-.019.114-.037.162c.119.011.354-.035.41.075.168-.023.3.032.435,0,.049-.012.087-.065.137-.075.093-.018.183.016.274,0-.017-.054,0-.137-.038-.174-.082,0-.067.089-.149.087-.043-.057-.119-.08-.162-.137-.047-.346-.077-.711-.149-1.033-.028.344.051.687.037,1.057-.067.057-.1.15-.174.2-.028-.083-.141-.126-.162-.236-.054-.3.113-.775.038-1.02C193.105,189.1,193.09,189.487,193.014,189.816Zm-1.593.013a.306.306,0,0,0,.211.05,2.01,2.01,0,0,1,.236-.3,2.89,2.89,0,0,0,.15.386h.087c.067-.082.1-.194.174-.274.044.1.065.217.111.311a.849.849,0,0,0,.224.013.964.964,0,0,0-.012-.771c-.114.1-.182.249-.3.348a1.256,1.256,0,0,0-.162-.423c-.087.1-.165.208-.248.311-.088-.156-.113-.376-.237-.5C191.59,189.276,191.506,189.553,191.421,189.829Zm3.3-.348a1.429,1.429,0,0,0-.261-.311c-.073.121-.084.306-.162.423-.1-.108-.182-.29-.3-.336a.982.982,0,0,0,.013.759.753.753,0,0,0,.211-.013c.057-.087.067-.223.124-.311.053.093.109.181.162.274h.1a3.939,3.939,0,0,1,.162-.4,1.824,1.824,0,0,0,.236.323c.069-.018.157-.017.187-.075-.084-.268-.155-.55-.236-.821h-.037C194.858,189.164,194.788,189.323,194.718,189.481Zm-3.048.423a2.565,2.565,0,0,0,.3.05.7.7,0,0,0-.137-.3C191.79,189.749,191.7,189.8,191.67,189.9Zm2.985.049a2.328,2.328,0,0,0,.286-.05c-.009-.075-.106-.166-.162-.236C194.7,189.726,194.685,189.847,194.655,189.953Zm-2.5.025c.041.025.126.007.187.013-.024-.072-.019-.172-.087-.2A.625.625,0,0,0,192.155,189.978Zm2.127.013h.174a.233.233,0,0,0-.125-.2C194.328,189.866,194.264,189.936,194.282,189.991Zm1.207-.175a9.371,9.371,0,0,1-1.033.212,5.157,5.157,0,0,1-.8.025c-.073.079-.035.169.013.249a2.89,2.89,0,0,0,.784-.013c-.014-.264.3-.329.336-.05a3.317,3.317,0,0,0,.784-.2C195.578,189.935,195.577,189.831,195.489,189.816Zm-3.558.187c-.214-.03-.5-.131-.7-.174-.111-.024-.144,0-.186.05v.174a4.09,4.09,0,0,0,.784.187c.023-.281.339-.228.323.05a2.914,2.914,0,0,0,.784.013c.055-.087.092-.152.025-.249A5.744,5.744,0,0,1,191.931,190Zm-1.132.149a.519.519,0,0,0,.211-.112c-.006-.061.013-.146-.013-.187A.232.232,0,0,0,190.8,190.152Zm4.814-.1a.586.586,0,0,0,.211.1.243.243,0,0,0-.2-.3C195.6,189.9,195.619,189.988,195.613,190.053Zm-3.62.336a.517.517,0,0,1,.1-.075.276.276,0,0,0-.05-.224C191.824,190.06,191.833,190.364,191.993,190.388Zm2.525-.087c.018.043.075.053.124.087.051-.028.075-.083.112-.124C194.748,189.991,194.435,190.1,194.518,190.3Zm-2.712-.025c-.331-.011-.665-.243-.958-.1-.009.061-.054.086-.037.174-.14-.015-.3.172-.311.237-.019.141.121.244.2.336a.306.306,0,0,0,.037.2,11.162,11.162,0,0,0,4.092.212c.382-.043.99-.082,1.095-.3v-.149c.138-.036.16-.188.2-.323-.11-.072-.148-.217-.323-.224.035-.05-.024-.1-.025-.149-.155-.132-.34-.035-.56.012-.3.066-.5.066-.573.287-.031-.077-.105-.11-.162-.162a2.583,2.583,0,0,1-.8.013c-.065.1-.207.125-.224.274a.622.622,0,0,1-.087-.3h-.124a.674.674,0,0,1-.1.3c-.01-.152-.158-.165-.211-.274a3.468,3.468,0,0,1-.8,0c-.085.026-.122.1-.186.15C191.946,190.378,191.856,190.347,191.807,190.277Zm1.356-.15a.527.527,0,0,0,.087.15c.152.031.165-.075.211-.15A.745.745,0,0,0,193.162,190.127Zm-.174.212a.473.473,0,0,0,.187.137c.048-.129.015-.32-.125-.336C193.061,190.238,192.978,190.241,192.988,190.339Zm.535-.2c-.077.056-.174.263-.05.336.047-.061.132-.084.162-.162C193.583,190.271,193.595,190.163,193.523,190.14Z" transform="translate(-189.953 -182.241)" fill="#eebc31"/>
    <path id="Path_950" data-name="Path 950" d="M197.463,217.485a3.657,3.657,0,0,1-.423.36c.059-1.7.167-3.442.224-5.2a1.717,1.717,0,0,1,.386.323C197.6,214.488,197.525,215.881,197.463,217.485Z" transform="translate(-196.53 -210.457)" fill="#eebc31"/>
    <path id="Path_951" data-name="Path 951" d="M268,217.679c-.071.014-.14-.1-.211-.162a1.072,1.072,0,0,1-.224-.2c-.078-1.281-.06-2.633-.162-3.856a3.249,3.249,0,0,1-.025-.635c.039-.152.3-.209.374-.348C267.847,214.04,267.912,216,268,217.679Z" transform="translate(-261.793 -210.302)" fill="#eebc31"/>
    <path id="Path_952" data-name="Path 952" d="M204.649,218.352a2.527,2.527,0,0,1,.311.249c-.03,1-.093,2.2-.137,3.2a2.05,2.05,0,0,1-.013.51c-.053.145-.256.222-.348.348C204.516,221.207,204.6,219.771,204.649,218.352Z" transform="translate(-203.417 -215.752)" fill="#eebc31"/>
    <path id="Path_953" data-name="Path 953" d="M262.3,222.778c-.016.017-.051-.026-.075-.05-.073-.073-.176-.185-.249-.261-.063-1.217-.111-2.486-.162-3.694a1.332,1.332,0,0,1,.286-.261C262.176,219.82,262.239,221.374,262.3,222.778Z" transform="translate(-256.642 -215.899)" fill="#eebc31"/>
    <path id="Path_954" data-name="Path 954" d="M220.426,220.978a3.188,3.188,0,0,1-1.306,2.724,3.33,3.33,0,0,1-1.356-2.724,2.34,2.34,0,0,0,1.356-.386A2.147,2.147,0,0,0,220.426,220.978Zm-1.754-.087c-.022.509-.012,1.2-.012,1.754a2.826,2.826,0,0,0,0,.6c.022.08.146.154.211.211a1.421,1.421,0,0,0,.236.187c.121-.1.418-.241.461-.4a2.813,2.813,0,0,0,0-.584V220.89c-.162-.079-.313-.168-.473-.249C218.981,220.752,218.795,220.789,218.672,220.89Z" transform="translate(-215.761 -217.83)" fill="#eebc31"/>
    <path id="Path_955" data-name="Path 955" d="M206.542,288.477c.078.026.2.006.211.1-.066.024-.119-.061-.211-.05Z" transform="translate(-205.347 -280.827)" fill="#eebc31"/>
    <path id="Path_956" data-name="Path 956" d="M263.927,288.612a.833.833,0,0,1-.211.087C263.714,288.612,263.882,288.57,263.927,288.612Z" transform="translate(-258.404 -280.937)" fill="#eebc31"/>
    <path id="Path_957" data-name="Path 957" d="M211.725,290.208a.425.425,0,0,1,.261.087C211.9,290.3,211.741,290.278,211.725,290.208Z" transform="translate(-210.157 -282.433)" fill="#eebc31"/>
    <path id="Path_958" data-name="Path 958" d="M257.94,290.3a.412.412,0,0,1-.274.074A.354.354,0,0,1,257.94,290.3Z" transform="translate(-252.79 -282.512)" fill="#eebc31"/>
    <path id="Path_959" data-name="Path 959" d="M248.438,291.847a.621.621,0,0,1-.274,0C248.186,291.763,248.41,291.77,248.438,291.847Z" transform="translate(-243.972 -283.898)" fill="#eebc31"/>
    <path id="Path_960" data-name="Path 960" d="M221.523,291.883c-.024.092-.2.033-.3.05C221.232,291.821,221.439,291.883,221.523,291.883Z" transform="translate(-218.972 -283.972)" fill="#eebc31"/>
    <path id="Path_961" data-name="Path 961" d="M227.176,292.247a.473.473,0,0,1-.261.037C226.94,292.216,227.1,292.224,227.176,292.247Z" transform="translate(-224.253 -284.31)" fill="#eebc31"/>
    <path id="Path_962" data-name="Path 962" d="M242.729,292.266a2.6,2.6,0,0,1-.261-.037C242.515,292.184,242.729,292.18,242.729,292.266Z" transform="translate(-238.686 -284.279)" fill="#eebc31"/>
    <path id="Path_963" data-name="Path 963" d="M255.288,294.238c.056,0,.026-.091.087-.087-.009.038.013.045.012.075a.245.245,0,0,1-.224.025c-.1.052-.219.231-.348.1-.089.015-.076.131-.15.162-.1-.078-.185-.04-.336-.025-.045.051-.048.142-.137.149.005-.057.074-.051.075-.112-.014-.04-.085-.023-.112-.05-.023-.1.056-.1.087-.149.057.014.062.079.075.137a.283.283,0,0,0,.112-.025.294.294,0,0,1,.087-.162c0-.069-.045-.163-.037-.2.071.016.037.138.075.187.1-.009.152.022.174.087.1-.037.126-.149.249-.149.054,0,.083.047.137.037.015-.165-.028-.5-.236-.374.009-.065.1-.048.174-.05C255.181,293.9,255.056,294.249,255.288,294.238Zm-.436.1c.057.051.2.024.187-.075C255,294.2,254.828,294.227,254.852,294.337Zm-.249.062a.454.454,0,0,0,.087-.025C254.69,294.232,254.492,294.3,254.6,294.4Zm-.112.037c.031,0,.039-.019.062-.025,0-.04.005-.087-.037-.087C254.494,294.346,254.458,294.4,254.492,294.436Zm-.3.025c.039.017.056.005.087-.013,0-.029-.022-.037-.013-.075C254.216,294.377,254.183,294.4,254.193,294.462Zm.423,0a.054.054,0,0,0,.087-.051C254.664,294.419,254.615,294.414,254.616,294.462Z" transform="translate(-249.528 -285.779)" fill="#eebc31"/>
    <path id="Path_964" data-name="Path 964" d="M205.789,294.443v.062c-.018.019-.064.011-.1.013-.01-.044,0-.031-.012-.075A.088.088,0,0,1,205.789,294.443Z" transform="translate(-204.546 -286.344)" fill="#eebc31"/>
    <path id="Path_965" data-name="Path 965" d="M205.438,296.589c0,.022-.015.026-.013.05-.051,0-.1,0-.1-.05A.118.118,0,0,1,205.438,296.589Z" transform="translate(-204.219 -288.341)" fill="#eebc31"/>
    <path id="Path_966" data-name="Path 966" d="M242.983,298.155h.05a.1.1,0,0,1,0,.1h-.05A.1.1,0,0,1,242.983,298.155Z" transform="translate(-239.152 -289.808)" fill="#eebc31"/>
    <path id="Path_967" data-name="Path 967" d="M215.18,298.495c.039.162.066.512-.075.535s-.1-.189-.236-.2a.368.368,0,0,1-.274.025c-.062,0-.052.081-.112.087.08-.083.046-.188.037-.286.067.008.076.073.075.15.036.075.186.025.236,0-.027-.052-.061-.1-.087-.15.076-.02.076-.091.149-.087a.13.13,0,0,1,.025.249c.082.03.092.133.162.174C215.245,298.957,215.125,298.639,215.18,298.495Zm-.373.2c0,.047.041.075.087.1C215.1,298.7,214.816,298.494,214.808,298.694Z" transform="translate(-212.717 -290.123)" fill="#eebc31"/>
    <path id="Path_968" data-name="Path 968" d="M225.9,298.495c.04.086-.014.282-.025.4A1.032,1.032,0,0,1,225.9,298.495Z" transform="translate(-223.278 -290.123)" fill="#eebc31"/>
    <path id="Path_969" data-name="Path 969" d="M243.973,298.495c.083.083-.015.347.087.41.085-.025.142-.014.162-.087s-.072-.1-.025-.149c.111.005.037.162.025.224a.852.852,0,0,1-.374.025c.007-.064.074-.067.125-.087C244.019,298.723,243.946,298.582,243.973,298.495Z" transform="translate(-239.967 -290.123)" fill="#eebc31"/>
    <path id="Path_970" data-name="Path 970" d="M243.132,300.224c.008.073-.15.031-.1-.013C243.05,300.195,243.131,300.186,243.132,300.224Z" transform="translate(-239.201 -291.703)" fill="#eebc31"/>
    <path id="Path_971" data-name="Path 971" d="M250.656,301.3a.675.675,0,0,1,.087-.162c-.035-.069-.172-.135-.075-.224C250.859,300.939,250.769,301.252,250.656,301.3Zm.012-.324c.006.048.026.083.075.087C250.773,301.024,250.717,300.932,250.668,300.973Z" transform="translate(-246.265 -292.365)" fill="#eebc31"/>
    <path id="Path_972" data-name="Path 972" d="M268.508,301.314c0,.073-.089.048-.124.025C268.4,301.269,268.467,301.29,268.508,301.314Z" transform="translate(-262.736 -292.718)" fill="#eebc31"/>
    <path id="Path_973" data-name="Path 973" d="M227.869,301.434a.554.554,0,0,0,.472.062c.036.035.033.109.063.149a.106.106,0,0,1,.075-.013c-.026-.148.18-.184.174-.025-.038.071-.149.066-.261.062-.051.028-.051.106-.1.136a.146.146,0,0,1-.112-.111,1.962,1.962,0,0,0-.4-.025c-.05.059-.1.181-.174.174.036-.064.107-.092.125-.174-.023-.047-.11-.085-.062-.162.119-.019.061.138.162.137C227.937,301.6,227.856,301.5,227.869,301.434Zm.037.211c.067,0,.182,0,.274.013.039.031.044.1.1.112.041-.054.111-.156.05-.236C228.192,301.647,227.893,301.387,227.906,301.645Zm.622-.013c.065.011.088-.019.087-.075C228.568,301.495,228.483,301.568,228.528,301.633Z" transform="translate(-224.895 -292.851)" fill="#eebc31"/>
    <path id="Path_974" data-name="Path 974" d="M205.73,302.265c.039-.011.039.019.062.025a.2.2,0,0,1-.025.087C205.7,302.367,205.7,302.3,205.73,302.265Z" transform="translate(-204.573 -293.62)" fill="#eebc31"/>
    <path id="Path_975" data-name="Path 975" d="M207.514,302.956c.052.086-.074.132-.112.062C207.407,302.965,207.446,302.946,207.514,302.956Z" transform="translate(-206.145 -294.261)" fill="#eebc31"/>
    <path id="Path_976" data-name="Path 976" d="M210.1,303.467c-.012,0-.01.015-.013.025H210C209.939,303.39,210.1,303.354,210.1,303.467Z" transform="translate(-208.542 -294.673)" fill="#eebc31"/>
    <path id="Path_977" data-name="Path 977" d="M245.075,305.406c.066,0,.058.108.013.125C245.037,305.524,245.04,305.428,245.075,305.406Z" transform="translate(-241.081 -296.537)" fill="#eebc31"/>
    <path id="Path_978" data-name="Path 978" d="M246.706,305.65c-.036-.014-.074-.026-.087-.062C246.657,305.469,246.809,305.575,246.706,305.65Z" transform="translate(-242.538 -296.656)" fill="#eebc31"/>
    <path id="Path_979" data-name="Path 979" d="M205.852,294.7h.037c0,.171-.256.465.037.485.048-.03.022-.136.087-.149.007.066-.025.091-.037.137.057.159.343.069.224-.111.139,0,.03.151.012.211a.286.286,0,0,1-.261-.05c-.138-.011-.26-.039-.274-.174C205.8,295,205.83,294.85,205.852,294.7Z" transform="translate(-204.546 -286.601)" fill="#eebc31"/>
  </g>
</svg>
