<svg xmlns="http://www.w3.org/2000/svg" width="22.785" height="25.155" viewBox="0 0 22.785 25.155">
  <path id="address" d="M25.065,26.275H16.156V24.219H10.675v2.056H2.28V14.8H5.939a1.352,1.352,0,0,1,1.1-1.173,6.6,6.6,0,0,1,2.09-3.106,7.526,7.526,0,0,1,2.719-1.292c.232-.074.469-.149.71-.232V1.12h2.228v.422a6.245,6.245,0,0,1,1.451-.182,3.267,3.267,0,0,1,.79.113c.311.067.623.148.928.239s.592.172.85.221l.034.008a2.269,2.269,0,0,0,.547.079,1.319,1.319,0,0,0,.442-.073c.1-.027.223-.061.386-.1l.739-.176V6.654l-.495.088L20.2,6.79a3.921,3.921,0,0,1-.807.095h-.006a3.729,3.729,0,0,1-.821-.1c-.323-.073-.623-.152-.941-.248s-.62-.161-.888-.226a2.865,2.865,0,0,0-.591-.078,1.588,1.588,0,0,0-.316.055l-.015,0a5.048,5.048,0,0,0-.57.165l-.459.17V9c.246.083.488.157.725.23a7.222,7.222,0,0,1,2.676,1.254,6.5,6.5,0,0,1,2.089,3.158A1.332,1.332,0,0,1,21.471,14.8h3.594Zm-7.709-1.2h6.509V16H3.48v9.079h6V23.019h7.881ZM8.051,14.482h11.2l-.023-.112a5.272,5.272,0,0,0-1.807-2.961,6.227,6.227,0,0,0-2.264-1.031c-.344-.106-.7-.215-1.072-.35h-.853c-.354.129-.692.236-1.02.34A6.529,6.529,0,0,0,9.9,11.438a5.343,5.343,0,0,0-1.814,2.9Zm8.1-9.453A4.094,4.094,0,0,1,17,5.136l.013,0c.28.068.606.148.936.239l.015,0c.293.089.568.161.867.228a2.553,2.553,0,0,0,.556.073h.005a1.955,1.955,0,0,0,.361-.034V3.194a2.384,2.384,0,0,1-.367.025,3.45,3.45,0,0,1-.824-.112c-.308-.06-.617-.15-.944-.245l-.005,0c-.277-.083-.561-.156-.844-.217l-.012,0a2.19,2.19,0,0,0-.519-.082,4.237,4.237,0,0,0-1.759.365l-.719.4V5.671l.515-.138.58-.215a6.34,6.34,0,0,1,.706-.2A2.613,2.613,0,0,1,16.146,5.029Z" transform="translate(-2.28 -1.12)" opacity="0.44"/>
</svg>
