<svg id="Arabic" xmlns="http://www.w3.org/2000/svg" width="26.615" height="26.615" viewBox="0 0 26.615 26.615">
  <ellipse id="Ellipse_123" data-name="Ellipse 123" cx="13.307" cy="13.307" rx="13.307" ry="13.307" transform="translate(0.001 0.001)" fill="#fff"/>
  <path id="Path_943" data-name="Path 943" d="M322.419,157.875h-8.2a36.8,36.8,0,0,1,.007,8.821h8.21a13.321,13.321,0,0,0-.017-8.821Z" transform="translate(-296.565 -149.004)" fill="#efecec"/>
  <path id="Path_944" data-name="Path 944" d="M261.267,9.788h8.2l0-.012a13.315,13.315,0,0,0-11.347-8.8C260.152,2.089,260.747,5.626,261.267,9.788Z" transform="translate(-243.612 -0.917)" fill="#c42b27"/>
  <path id="Path_945" data-name="Path 945" d="M258.115,323.739a13.316,13.316,0,0,0,11.357-8.83c0-.013.008-.025.013-.038h-8.21C260.758,319.055,260.16,322.618,258.115,323.739Z" transform="translate(-243.612 -297.179)" fill="#0b0b0b"/>
  <path id="Path_946" data-name="Path 946" d="M0,162.312A13.288,13.288,0,0,0,.743,166.7h17.6a36.8,36.8,0,0,0-.007-8.821H.76A13.28,13.28,0,0,0,0,162.312Z" transform="translate(0 -149.004)" fill="#efefef"/>
  <path id="Path_947" data-name="Path 947" d="M13.537,8.859l0,.012h17.58c-.521-4.162-1.8-7.7-3.838-8.816C26.881.02,26.483,0,26.08,0A13.31,13.31,0,0,0,13.537,8.859Z" transform="translate(-12.773 0)" fill="#cc3434"/>
  <path id="Path_948" data-name="Path 948" d="M30.824,314.871h-17.6l.013.038a13.311,13.311,0,0,0,12.552,8.885c.4,0,.8-.02,1.2-.055C29.025,322.618,30.307,319.055,30.824,314.871Z" transform="translate(-12.476 -297.179)" fill="#151515"/>
  <g id="Group_1083" data-name="Group 1083" transform="translate(10.673 10.24)">
    <path id="Path_949" data-name="Path 949" d="M195.185,188.4a3.6,3.6,0,0,0-.592-.019c-.037.021-.032.084-.048.126.019.039.058.018.1.048.061.058.1.137.194.165-.079.083-.077.247-.194.291.02.191-.1.224-.291.262a11.406,11.406,0,0,1-3.242.068,1.62,1.62,0,0,1-.554-.145.181.181,0,0,1-.048-.165c-.112-.056-.114-.223-.2-.3.126-.043.15-.186.291-.213a.435.435,0,0,0-.03-.136,3.9,3.9,0,0,0-.611.019c.016-.217.021-.464.039-.718.025-.34.021-.739.048-1.077.014-.173.009-.351.02-.524.02-.328.006-.654.029-.961.025-.332.013-.686.039-1s.115-.585.495-.554c.45.037.732.414,1.223.417a1.28,1.28,0,0,0,.33-1.1c-.029-.189-.229-.462-.427-.359-.029-.319.275-.276.475-.175.061-.038.079-.092.146-.107a.731.731,0,0,1,.456.087.629.629,0,0,1,.223.563c0,.136-.031.271-.02.407a1.223,1.223,0,0,0,.243.67c.456.042.79-.364,1.232-.408a.446.446,0,0,1,.427.175,8.48,8.48,0,0,1,.126,1.5c.024.313.01.641.029.961C195.131,186.934,195.153,187.661,195.185,188.4ZM193,183.328a2.831,2.831,0,0,0-.039-.786c-.043-.041-.068-.1-.126-.126h-.145c-.073.039-.1.12-.175.136-.179.038-.194-.132-.33-.184-.035-.014-.083-.006-.126-.02-.13-.04-.207-.086-.272.1.238-.014.45.063.5.262-.136-.038-.1.084-.087.165a1.442,1.442,0,0,1-.175.942c-.065.1-.147.186-.194.282.141-.026.269-.018.34-.107.1-.118.075-.372.136-.514a1.049,1.049,0,0,1-.233.689c.346-.049.406-.337.437-.689a.916.916,0,0,1-.078.485c.045.056.07.131.136.165a.473.473,0,0,0,.126-.175.738.738,0,0,1-.058-.476c0,.373.1.64.418.689a.966.966,0,0,1-.214-.7,1.57,1.57,0,0,0,.126.534.691.691,0,0,0,.34.1A1.35,1.35,0,0,1,193,183.328Zm-.611-.883v.039c.023,0,.021.018.048.01a.06.06,0,0,0,.01-.048A.048.048,0,0,0,192.39,182.445Zm-1.873,1.155a.371.371,0,0,0-.33.408c.094-.032.183-.12.282-.117-.053,1.461-.117,2.789-.175,4.232a1.149,1.149,0,0,0-.252.242h.524c.027-.232.288-.279.5-.214.1-.356.208-.711.3-1.077-.1.059-.146.165-.243.223.035-.934.082-1.843.117-2.8a.854.854,0,0,0,.631.087,1.937,1.937,0,0,0,.708-.311,1.584,1.584,0,0,0,.874.33,1.055,1.055,0,0,0,.447-.087c.02.952.088,1.883.107,2.786a2.718,2.718,0,0,0-.233-.224c.086.367.2.709.291,1.068.226-.071.476-.009.515.214.171-.007.369.013.524-.01-.061-.108-.212-.139-.252-.252a1.963,1.963,0,0,1-.019-.486c-.053-1.174-.128-2.56-.155-3.736a2.951,2.951,0,0,1,.282.126c-.022-.234-.119-.393-.34-.408-.5-.034-.792.428-1.3.417,0,.062.1.075.087.117a1.479,1.479,0,0,1-.34-.048c-.009.054.088.078.1.145a.866.866,0,0,1-.456-.223.9.9,0,0,1-.146.184,1.151,1.151,0,0,0-.146-.184.633.633,0,0,1-.446.213c.028-.049.087-.068.1-.136a.88.88,0,0,1-.34.039c.03-.035.081-.048.087-.107C191.335,184.031,191,183.562,190.516,183.6Zm.941,1.049a2.487,2.487,0,0,0,1.126,2.242,2.532,2.532,0,0,0,1.1-2.242,2,2,0,0,1-.8-.146c-.119-.051-.234-.146-.33-.175A1.723,1.723,0,0,1,191.457,184.648Zm.019.708c-.009.472-.084,1.047-.048,1.534a3.3,3.3,0,0,0,.087-.941,1.278,1.278,0,0,0-.029-.621A.046.046,0,0,1,191.477,185.357Zm2.155.874a1.55,1.55,0,0,0,.1.669c.01-.516-.055-1.053-.058-1.563-.013,0-.013-.012-.029-.009A3.99,3.99,0,0,0,193.632,186.23Zm-2,.553c.084-.094.177-.179.252-.282a.751.751,0,0,0-.175-.495C191.68,186.256,191.44,186.578,191.632,186.784Zm1.631-.272c.091.084.169.232.272.272.145-.236-.064-.489-.087-.757-.013,0-.014-.013-.03-.009A.772.772,0,0,0,193.263,186.511Zm-1.3.437a2.7,2.7,0,0,0,.242-.311c-.121-.1-.208-.225-.32-.33C191.91,186.522,191.924,186.747,191.962,186.948Zm.98-.3a1.64,1.64,0,0,0,.252.3c.02-.21.036-.424.068-.621,0-.012,0-.023-.019-.02A3.326,3.326,0,0,1,192.943,186.647Zm-1.34.194c-.012-.062-.045-.1-.058-.165a1.331,1.331,0,0,0-.136.427c-.016.054-.053.1-.048.155.111-.048.157-.16.272-.2a2.419,2.419,0,0,0,.1.252c.09-.043.086-.18.165-.233.044.156.09.311.145.456.1-.087.221-.161.252-.32-.058-.133-.112-.27-.165-.407-.079.054-.129.188-.194.223a1.5,1.5,0,0,0-.068-.466A1.788,1.788,0,0,1,191.6,186.841Zm1.611.194c-.071-.072-.119-.165-.194-.233-.028.064-.061.127-.087.194a.84.84,0,0,0-.078.213c-.007.152.161.224.252.32a2.777,2.777,0,0,1,.126-.456c.06.076.087.185.175.233.045-.081.076-.177.117-.262a2.593,2.593,0,0,0,.252.214,3.407,3.407,0,0,0-.175-.592.763.763,0,0,1-.078.174,2.6,2.6,0,0,0-.262-.272A3.084,3.084,0,0,0,193.214,187.035Zm-.99-.368c-.157.112.017.339.078.466.028-.112.053-.226.078-.34C192.326,186.753,192.275,186.71,192.224,186.667Zm.544.136a1.166,1.166,0,0,0,.087.33c.054-.115.094-.242.145-.359-.028-.04-.045-.091-.1-.107C192.88,186.734,192.795,186.739,192.768,186.8Zm-1.174.291a.992.992,0,0,1-.252.214c-.068.2.072.362.136.514.088-.064.126-.179.214-.242a1.469,1.469,0,0,0,.117.33c.1-.067.15-.225.242-.262a.731.731,0,0,0,.078.3c.034-.186.079-.361.116-.544-.078.016-.136.136-.213.185-.054-.14-.089-.3-.145-.437-.076.053-.087.172-.155.233A.9.9,0,0,0,191.593,187.094Zm1.805.291c-.055-.08-.088-.183-.175-.233-.035.146-.075.288-.106.437-.081-.046-.135-.169-.214-.185a2.527,2.527,0,0,0,.136.553,1.789,1.789,0,0,1,.068-.32c.087.084.133.21.242.272.03-.115.072-.219.107-.33.082.07.121.183.214.242.054-.156.19-.3.136-.5-.1-.064-.176-.154-.272-.224C193.478,187.179,193.457,187.3,193.4,187.385Zm-1.058.767c-.05.028-.085.071-.136.1-.021-.024-.08-.1-.1-.068s-.015.089-.029.126c.093.009.276-.027.32.058.131-.018.237.025.34,0,.038-.009.068-.051.107-.058.072-.014.142.013.214,0-.013-.042,0-.107-.03-.136-.064,0-.053.07-.116.068-.033-.044-.093-.062-.126-.107-.037-.27-.06-.555-.116-.806-.022.268.039.536.029.825-.052.045-.077.117-.136.155-.022-.065-.11-.1-.126-.184-.042-.237.088-.6.03-.8C192.412,187.589,192.4,187.894,192.341,188.152Zm-1.243.01a.239.239,0,0,0,.165.039,1.569,1.569,0,0,1,.184-.233,2.256,2.256,0,0,0,.117.3h.068c.053-.064.082-.151.136-.213.034.076.05.17.087.242a.662.662,0,0,0,.175.01.752.752,0,0,0-.009-.6c-.089.079-.142.195-.233.272a.979.979,0,0,0-.126-.33c-.068.077-.128.162-.194.242-.069-.122-.088-.294-.185-.388C191.231,187.731,191.165,187.946,191.1,188.162Zm2.572-.272a1.116,1.116,0,0,0-.2-.242c-.057.095-.066.238-.126.33-.075-.084-.142-.226-.233-.262a.766.766,0,0,0,.01.592.589.589,0,0,0,.165-.01c.045-.068.052-.174.1-.242.041.072.085.141.126.213h.078a3.078,3.078,0,0,1,.127-.311,1.421,1.421,0,0,0,.184.252c.054-.014.123-.013.146-.058-.066-.209-.121-.429-.184-.64h-.029C193.78,187.643,193.726,187.767,193.671,187.89Zm-2.378.33a2,2,0,0,0,.233.039.545.545,0,0,0-.107-.233C191.386,188.1,191.318,188.138,191.293,188.22Zm2.329.038a1.815,1.815,0,0,0,.223-.039c-.007-.059-.083-.13-.126-.184C193.658,188.081,193.645,188.176,193.622,188.258Zm-1.951.02c.032.02.1.005.146.01-.019-.056-.015-.134-.068-.155A.488.488,0,0,0,191.671,188.278Zm1.66.01h.136a.182.182,0,0,0-.1-.155C193.367,188.19,193.317,188.245,193.331,188.288Zm.942-.136a7.307,7.307,0,0,1-.806.165,4.015,4.015,0,0,1-.621.019c-.057.062-.028.132.01.194a2.254,2.254,0,0,0,.611-.01c-.011-.206.234-.257.262-.039a2.587,2.587,0,0,0,.611-.155C194.342,188.245,194.341,188.164,194.272,188.152Zm-2.776.146c-.167-.024-.391-.1-.544-.136-.087-.019-.112,0-.145.039v.136a3.191,3.191,0,0,0,.611.146c.018-.219.264-.178.252.039a2.272,2.272,0,0,0,.612.01c.043-.068.071-.118.019-.194A4.481,4.481,0,0,1,191.5,188.3Zm-.883.116a.4.4,0,0,0,.165-.087c0-.047.01-.114-.01-.146A.181.181,0,0,0,190.613,188.414Zm3.756-.078a.457.457,0,0,0,.165.078.189.189,0,0,0-.155-.233C194.359,188.216,194.374,188.286,194.369,188.336Zm-2.824.262a.4.4,0,0,1,.078-.058.215.215,0,0,0-.039-.174C191.413,188.342,191.42,188.579,191.545,188.6Zm1.97-.068c.014.034.059.041.1.068.04-.022.059-.065.087-.1C193.695,188.288,193.45,188.375,193.515,188.53Zm-2.116-.019c-.258-.009-.519-.19-.747-.078-.007.047-.042.067-.029.136-.109-.012-.236.134-.243.185-.015.11.095.19.155.262a.239.239,0,0,0,.029.155,8.71,8.71,0,0,0,3.193.165c.3-.033.773-.064.854-.233v-.117c.108-.028.125-.146.155-.252-.086-.056-.115-.169-.252-.174.027-.039-.019-.075-.019-.117-.121-.1-.266-.028-.437.009-.235.051-.389.052-.447.224-.024-.06-.082-.086-.126-.126a2.016,2.016,0,0,1-.621.01c-.05.079-.161.1-.175.213a.485.485,0,0,1-.068-.233h-.1a.525.525,0,0,1-.078.233c-.008-.118-.123-.129-.165-.213a2.706,2.706,0,0,1-.622,0c-.066.021-.095.079-.145.117C191.508,188.59,191.438,188.566,191.4,188.511Zm1.058-.117a.41.41,0,0,0,.068.117c.118.024.129-.059.165-.117A.581.581,0,0,0,192.457,188.394Zm-.136.165a.369.369,0,0,0,.146.107c.038-.1.012-.25-.1-.262C192.378,188.481,192.313,188.483,192.321,188.56Zm.418-.155c-.06.044-.136.2-.039.262.037-.048.1-.065.126-.126C192.785,188.506,192.794,188.422,192.739,188.4Z" transform="translate(-189.953 -182.241)" fill="#eebc31"/>
    <path id="Path_950" data-name="Path 950" d="M197.37,216.422a2.859,2.859,0,0,1-.33.281c.046-1.325.13-2.686.175-4.057a1.341,1.341,0,0,1,.3.252C197.474,214.084,197.419,215.17,197.37,216.422Z" transform="translate(-196.642 -210.938)" fill="#eebc31"/>
    <path id="Path_951" data-name="Path 951" d="M267.862,216.537c-.055.011-.109-.08-.165-.126a.835.835,0,0,1-.175-.155c-.061-1-.046-2.055-.126-3.009a2.532,2.532,0,0,1-.019-.5c.031-.118.231-.163.292-.271C267.742,213.7,267.792,215.225,267.862,216.537Z" transform="translate(-263.018 -210.781)" fill="#eebc31"/>
    <path id="Path_952" data-name="Path 952" d="M204.608,218.352a1.971,1.971,0,0,1,.242.194c-.023.78-.072,1.714-.107,2.494a1.6,1.6,0,0,1-.01.4c-.041.113-.2.174-.272.272C204.5,220.579,204.57,219.46,204.608,218.352Z" transform="translate(-203.647 -216.323)" fill="#eebc31"/>
    <path id="Path_953" data-name="Path 953" d="M262.2,221.84c-.013.013-.04-.021-.058-.039-.057-.057-.137-.144-.194-.2-.049-.949-.087-1.94-.126-2.883a1.037,1.037,0,0,1,.223-.2C262.1,219.532,262.146,220.745,262.2,221.84Z" transform="translate(-257.779 -216.473)" fill="#eebc31"/>
    <path id="Path_954" data-name="Path 954" d="M219.841,220.893a2.487,2.487,0,0,1-1.019,2.125,2.6,2.6,0,0,1-1.058-2.125,1.825,1.825,0,0,0,1.058-.3A1.675,1.675,0,0,0,219.841,220.893Zm-1.369-.068c-.017.4-.009.932-.009,1.369a2.2,2.2,0,0,0,0,.466c.017.062.114.12.165.165a1.11,1.11,0,0,0,.184.146c.095-.074.326-.188.359-.311a2.195,2.195,0,0,0,0-.456v-1.379c-.126-.062-.245-.131-.369-.194C218.714,220.717,218.568,220.746,218.473,220.825Z" transform="translate(-216.201 -218.437)" fill="#eebc31"/>
    <path id="Path_955" data-name="Path 955" d="M206.542,288.477c.061.02.157,0,.165.078-.051.019-.093-.048-.165-.039Z" transform="translate(-205.61 -282.508)" fill="#eebc31"/>
    <path id="Path_956" data-name="Path 956" d="M263.881,288.609a.653.653,0,0,1-.165.068C263.714,288.609,263.846,288.576,263.881,288.609Z" transform="translate(-259.571 -282.62)" fill="#eebc31"/>
    <path id="Path_957" data-name="Path 957" d="M211.725,290.208a.332.332,0,0,1,.2.068C211.865,290.278,211.738,290.262,211.725,290.208Z" transform="translate(-210.502 -284.141)" fill="#eebc31"/>
    <path id="Path_958" data-name="Path 958" d="M257.88,290.3a.321.321,0,0,1-.214.058A.276.276,0,0,1,257.88,290.3Z" transform="translate(-253.861 -284.221)" fill="#eebc31"/>
    <path id="Path_959" data-name="Path 959" d="M248.378,291.833a.485.485,0,0,1-.214,0C248.181,291.768,248.356,291.773,248.378,291.833Z" transform="translate(-244.893 -285.631)" fill="#eebc31"/>
    <path id="Path_960" data-name="Path 960" d="M221.457,291.879c-.019.072-.155.026-.233.039C221.23,291.831,221.392,291.879,221.457,291.879Z" transform="translate(-219.467 -285.706)" fill="#eebc31"/>
    <path id="Path_961" data-name="Path 961" d="M227.119,292.243a.369.369,0,0,1-.2.029C226.935,292.219,227.063,292.225,227.119,292.243Z" transform="translate(-224.838 -286.05)" fill="#eebc31"/>
    <path id="Path_962" data-name="Path 962" d="M242.672,292.251a2.034,2.034,0,0,1-.2-.029C242.5,292.187,242.672,292.184,242.672,292.251Z" transform="translate(-239.517 -286.019)" fill="#eebc31"/>
    <path id="Path_963" data-name="Path 963" d="M255.038,294.144c.044,0,.02-.071.068-.068-.007.03.01.035.009.058a.191.191,0,0,1-.174.019c-.076.041-.171.18-.272.078-.07.012-.059.1-.117.126-.078-.061-.144-.031-.262-.02-.035.04-.038.111-.107.117,0-.044.057-.039.058-.087-.011-.031-.066-.018-.087-.039-.018-.08.044-.079.068-.117.044.011.048.062.058.107a.222.222,0,0,0,.087-.02.23.23,0,0,1,.068-.126c0-.054-.035-.127-.029-.155.056.013.029.108.058.146.075-.007.119.017.136.068.075-.029.1-.117.194-.116.042,0,.065.037.107.029.012-.129-.022-.394-.184-.291.007-.051.079-.038.136-.039C254.955,293.884,254.857,294.153,255.038,294.144Zm-.34.078c.045.04.157.018.146-.058C254.816,294.115,254.679,294.136,254.7,294.222Zm-.194.048a.351.351,0,0,0,.068-.019C254.572,294.14,254.417,294.2,254.5,294.27Zm-.087.029c.024,0,.03-.015.048-.02,0-.032,0-.068-.029-.068C254.418,294.229,254.391,294.268,254.417,294.3Zm-.233.02c.03.013.044,0,.068-.01,0-.023-.017-.029-.01-.058C254.2,294.253,254.176,294.269,254.184,294.319Zm.33,0a.042.042,0,0,0,.068-.039C254.552,294.286,254.513,294.282,254.514,294.319Z" transform="translate(-250.544 -287.544)" fill="#eebc31"/>
    <path id="Path_964" data-name="Path 964" d="M205.765,294.438v.048c-.014.015-.05.009-.078.01-.008-.034,0-.024-.009-.058A.069.069,0,0,1,205.765,294.438Z" transform="translate(-204.794 -288.119)" fill="#eebc31"/>
    <path id="Path_965" data-name="Path 965" d="M205.413,296.585c0,.017-.012.021-.01.039-.04,0-.076,0-.078-.039A.092.092,0,0,1,205.413,296.585Z" transform="translate(-204.462 -290.15)" fill="#eebc31"/>
    <path id="Path_966" data-name="Path 966" d="M242.98,298.155h.039a.076.076,0,0,1,0,.078h-.039A.075.075,0,0,1,242.98,298.155Z" transform="translate(-239.991 -291.642)" fill="#eebc31"/>
    <path id="Path_967" data-name="Path 967" d="M215.027,298.495c.03.126.052.4-.058.417s-.078-.148-.184-.155a.287.287,0,0,1-.213.02c-.048,0-.041.063-.087.068.062-.065.036-.146.029-.224.052.006.059.057.058.117.028.059.145.019.184,0-.021-.041-.047-.076-.068-.117.059-.016.059-.071.117-.068a.1.1,0,0,1,.019.194c.064.024.071.1.127.136C215.078,298.856,214.984,298.608,215.027,298.495Zm-.291.155c0,.037.032.058.068.078C214.968,298.655,214.743,298.495,214.737,298.65Z" transform="translate(-213.106 -291.963)" fill="#eebc31"/>
    <path id="Path_968" data-name="Path 968" d="M225.895,298.495c.031.067-.011.22-.02.311A.806.806,0,0,1,225.895,298.495Z" transform="translate(-223.846 -291.963)" fill="#eebc31"/>
    <path id="Path_969" data-name="Path 969" d="M243.945,298.495c.065.064-.012.27.068.32.066-.02.111-.011.126-.068s-.056-.081-.019-.117c.087,0,.029.126.019.175a.664.664,0,0,1-.291.019c.005-.05.057-.053.1-.068C243.982,298.673,243.924,298.563,243.945,298.495Z" transform="translate(-240.82 -291.963)" fill="#eebc31"/>
    <path id="Path_970" data-name="Path 970" d="M243.108,300.218c.006.057-.117.024-.078-.01C243.044,300.2,243.107,300.189,243.108,300.218Z" transform="translate(-240.041 -293.57)" fill="#eebc31"/>
    <path id="Path_971" data-name="Path 971" d="M250.651,301.212a.527.527,0,0,1,.068-.126c-.027-.054-.134-.105-.059-.175C250.81,300.933,250.74,301.177,250.651,301.212Zm.009-.253c0,.037.02.065.059.068C250.743,301,250.7,300.927,250.661,300.96Z" transform="translate(-247.225 -294.243)" fill="#eebc31"/>
    <path id="Path_972" data-name="Path 972" d="M268.481,301.309c0,.057-.069.038-.1.019C268.4,301.274,268.449,301.29,268.481,301.309Z" transform="translate(-263.977 -294.602)" fill="#eebc31"/>
    <path id="Path_973" data-name="Path 973" d="M227.811,301.434a.432.432,0,0,0,.369.048c.028.027.025.085.049.117a.083.083,0,0,1,.058-.01c-.02-.115.14-.144.136-.019-.03.055-.117.052-.2.049-.04.022-.04.083-.078.106a.114.114,0,0,1-.087-.087,1.53,1.53,0,0,0-.311-.019c-.039.046-.077.141-.136.136.028-.05.084-.071.1-.136-.018-.037-.086-.066-.049-.126.093-.015.048.108.126.107C227.864,301.565,227.8,301.488,227.811,301.434Zm.029.165c.053,0,.142,0,.213.01.03.025.034.076.078.087.032-.042.087-.122.039-.184C228.064,301.6,227.83,301.4,227.84,301.6Zm.485-.01c.05.009.069-.015.068-.058C228.357,301.481,228.291,301.539,228.325,301.589Z" transform="translate(-225.491 -294.737)" fill="#eebc31"/>
    <path id="Path_974" data-name="Path 974" d="M205.725,302.265c.031-.008.03.015.048.02a.157.157,0,0,1-.019.068C205.7,302.345,205.7,302.3,205.725,302.265Z" transform="translate(-204.823 -295.519)" fill="#eebc31"/>
    <path id="Path_975" data-name="Path 975" d="M207.489,302.955c.041.067-.058.1-.087.048C207.406,302.962,207.436,302.947,207.489,302.955Z" transform="translate(-206.422 -296.171)" fill="#eebc31"/>
    <path id="Path_976" data-name="Path 976" d="M210.072,303.452c-.009,0-.008.012-.01.02h-.068C209.949,303.392,210.076,303.363,210.072,303.452Z" transform="translate(-208.859 -296.59)" fill="#eebc31"/>
    <path id="Path_977" data-name="Path 977" d="M245.069,305.406c.052,0,.046.084.01.1C245.039,305.5,245.042,305.423,245.069,305.406Z" transform="translate(-241.953 -298.485)" fill="#eebc31"/>
    <path id="Path_978" data-name="Path 978" d="M246.687,305.625c-.028-.011-.057-.021-.068-.048C246.648,305.483,246.767,305.566,246.687,305.625Z" transform="translate(-243.435 -298.607)" fill="#eebc31"/>
    <path id="Path_979" data-name="Path 979" d="M205.814,294.7h.029c0,.134-.2.362.029.378.037-.024.017-.106.068-.117.006.051-.02.071-.029.107.044.124.268.054.175-.087.109,0,.023.118.009.165a.223.223,0,0,1-.2-.039c-.108-.009-.2-.03-.213-.136C205.775,294.932,205.8,294.817,205.814,294.7Z" transform="translate(-204.795 -288.38)" fill="#eebc31"/>
  </g>
</svg>
