<svg xmlns="http://www.w3.org/2000/svg" width="26.631" height="34.014" viewBox="0 0 26.631 34.014">
  <path id="blood_type" d="M18.815,3.535a.5.5,0,0,1,.365.158l9.067,9.673a14.826,14.826,0,0,1,0,20.02,12.756,12.756,0,0,1-18.855,0,14.825,14.825,0,0,1,0-20.02l9.05-9.672a.5.5,0,0,1,.365-.158Zm.008,33.014a11.846,11.846,0,0,0,8.7-3.847,13.835,13.835,0,0,0,0-18.653l-8.7-9.283-8.686,9.283a13.835,13.835,0,0,0,0,18.653A11.846,11.846,0,0,0,18.823,36.549Z" transform="translate(-5.507 -3.535)" fill="#fd1916"/>
</svg>
