<svg xmlns="http://www.w3.org/2000/svg" width="15.268" height="27.577" viewBox="0 0 15.268 27.577">
  <path id="Habbits" d="M3.517.973A3.238,3.238,0,1,1,.279,4.211,3.241,3.241,0,0,1,3.517.973Zm0,5.275A2.038,2.038,0,1,0,1.479,4.211,2.04,2.04,0,0,0,3.517,6.249Zm0,1.758H4.545a4.085,4.085,0,0,1,2.908,1.2l2.308,2.314h2.548a2.358,2.358,0,1,1,0,4.717H9.15a3.215,3.215,0,0,1-2.287-.951l-.124-.124v2.8l2.183,3.249.017.034a4.134,4.134,0,0,1,.432,1.84v3.1a2.358,2.358,0,0,1-4.717,0V23.3l-.538-.8,0,3.689a2.356,2.356,0,1,1-4.711,0L-.589,17.4-.6,12.131A4.118,4.118,0,0,1,3.517,8.007Zm8.792,7.034a1.158,1.158,0,1,0,0-2.317H9.263L6.6,10.059a2.893,2.893,0,0,0-2.059-.851H3.517A2.918,2.918,0,0,0,.6,12.13L.611,17.4.6,26.193a1.156,1.156,0,1,0,2.311,0l.007-6.553.89.495a1,1,0,0,1,.13.088l.116.052,1.8,2.658v3.261a1.158,1.158,0,1,0,2.317,0v-3.1a2.931,2.931,0,0,0-.289-1.27L5.538,18.33V12.269l2.173,2.173a2.023,2.023,0,0,0,1.439.6Z" transform="translate(0.6 -0.973)" opacity="0.44"/>
</svg>
