<svg xmlns="http://www.w3.org/2000/svg" width="20.987" height="16.525" viewBox="0 0 20.987 16.525">
  <path id="Last_Donation_Date" data-name="Last Donation Date" d="M-356.27-1142.475a3.7,3.7,0,0,1-2.569-1.013l-.274-.194-3.812-2.7H-367v-7.606h7.216a3.764,3.764,0,0,1,2.677,1.109l3.261,3.261a1.837,1.837,0,0,1,.541,1.308,1.836,1.836,0,0,1-.541,1.307,1.852,1.852,0,0,1-2.612,0l-2.008-2-.139.141,2.27,2.271a1.392,1.392,0,0,0,.989.409h5.854a1.853,1.853,0,0,1,1.851,1.851,1.853,1.853,0,0,1-1.851,1.851Zm-9.63-5h3.325l4.452,3.149.034.035a2.572,2.572,0,0,0,1.819.719h6.779a.751.751,0,0,0,.751-.751.752.752,0,0,0-.751-.751h-5.854a2.482,2.482,0,0,1-1.767-.732l-3.043-3.043,1.683-1.706,2.791,2.782a.75.75,0,0,0,1.058,0,.744.744,0,0,0,.22-.529.745.745,0,0,0-.22-.53l-3.261-3.261a2.668,2.668,0,0,0-1.9-.787H-365.9Zm12.281-3.917a3.931,3.931,0,0,1,.5-1.893l.005-.009,3.3-5.7,3.3,5.711a3.934,3.934,0,0,1,.5,1.893,3.808,3.808,0,0,1-3.8,3.8A3.807,3.807,0,0,1-353.619-1151.4Zm1.458-1.355a2.819,2.819,0,0,0-.358,1.355,2.706,2.706,0,0,0,2.7,2.7,2.706,2.706,0,0,0,2.7-2.7,2.819,2.819,0,0,0-.358-1.355l-2.344-4.052Z" transform="translate(367 1159)" fill="#8f8f8f"/>
</svg>
