<svg xmlns="http://www.w3.org/2000/svg" width="19.571" height="22.996" viewBox="0 0 19.571 22.996">
  <path id="Member_Since" data-name="Member Since" d="M-354.092-1136.273l0-.005-3.133-5.413-3.131,5.342a.535.535,0,0,1-.471.276.561.561,0,0,1-.465-.269l0-.006-1.615-2.808h-3.544a.563.563,0,0,1-.465-.27l-.006-.01a.56.56,0,0,1,0-.548l3.3-5.845a1.024,1.024,0,0,1-.545-1l.286-2.049-1.39-1.5a1.031,1.031,0,0,1,.029-1.372l1.384-1.45-.242-2.025a1.019,1.019,0,0,1,.823-1.122l2-.353.99-1.782a.984.984,0,0,1,.576-.474.982.982,0,0,1,.751.075l1.8.878,1.867-.868h.026a1.048,1.048,0,0,1,.374-.069.965.965,0,0,1,.882.551l.967,1.781,2,.4a1.033,1.033,0,0,1,.8,1.1l-.287,2.05,1.391,1.5a1.029,1.029,0,0,1-.03,1.372l-1.383,1.451.242,2.03a1.052,1.052,0,0,1-.48.968l3.28,5.761a.475.475,0,0,1-.024.558.534.534,0,0,1-.466.27h-3.543l-1.615,2.875a.532.532,0,0,1-.471.276A.562.562,0,0,1-354.092-1136.273Zm-3.152-7.663.434.771a.458.458,0,0,1,.1.176l3.082,5.332,1.31-2.325a.535.535,0,0,1,.47-.276h2.935l-2.964-5.215-1.235.227-.99,1.782a.985.985,0,0,1-.875.5.962.962,0,0,1-.45-.1l-1.8-.878Zm-8.277,3.679h2.935a.566.566,0,0,1,.466.27l0,.005,1.309,2.259,2.924-5.091-.376-.657-.859.4h-.026a1.053,1.053,0,0,1-.374.07.966.966,0,0,1-.882-.552l-.967-1.778-1.166-.205Zm8.746-4.692,1.757.856.967-1.741a1.008,1.008,0,0,1,.7-.5l1.933-.322-.237-1.976a.944.944,0,0,1,.276-.825l1.373-1.417-1.354-1.461a.975.975,0,0,1-.25-.828l.279-1.974-1.95-.386a.932.932,0,0,1-.68-.474l0,0-.95-1.794-1.8.823a.949.949,0,0,1-.45.112.952.952,0,0,1-.453-.113l-1.757-.858-.967,1.741a1.01,1.01,0,0,1-.7.5l-1.983.349.241,1.994a.945.945,0,0,1-.276.825l-1.353,1.417,1.333,1.462a.977.977,0,0,1,.25.827l-.279,1.974,1.972.365a.944.944,0,0,1,.7.475l0,0,.95,1.792,1.8-.843a.935.935,0,0,1,.45-.112A.945.945,0,0,1-356.775-1144.948Zm-4.007-3.1-.219-.258.159-.3a3.115,3.115,0,0,1,2.751-1.668,1.073,1.073,0,0,1,.312.047l.008,0a2.6,2.6,0,0,0,.806.138,2.6,2.6,0,0,0,.8-.137l.009,0a1.073,1.073,0,0,1,.312-.047,3.116,3.116,0,0,1,2.751,1.668l.159.3-.219.258a5,5,0,0,1-3.818,1.777A5,5,0,0,1-360.782-1148.044Zm1.01-.38a3.991,3.991,0,0,0,2.808,1.156,3.991,3.991,0,0,0,2.808-1.156,2.107,2.107,0,0,0-1.682-.845.087.087,0,0,0-.019,0,3.592,3.592,0,0,1-1.107.185,3.574,3.574,0,0,1-1.108-.185l-.018,0A2.107,2.107,0,0,0-359.772-1148.423Zm.244-4.347a2.567,2.567,0,0,1,2.564-2.564,2.567,2.567,0,0,1,2.564,2.564,2.566,2.566,0,0,1-2.564,2.563A2.566,2.566,0,0,1-359.528-1152.77Zm1,0a1.566,1.566,0,0,0,1.564,1.563,1.565,1.565,0,0,0,1.563-1.563,1.566,1.566,0,0,0-1.563-1.564A1.566,1.566,0,0,0-358.529-1152.77Z" transform="translate(367 1159)" fill="#8e8e8e"/>
</svg>
