<svg xmlns="http://www.w3.org/2000/svg" width="25.835" height="25.835" viewBox="0 0 25.835 25.835">
  <path id="Phone" d="M24.841,48.886a16.8,16.8,0,0,1-6.6-1.341,2.8,2.8,0,0,0-2.166-.008,2.746,2.746,0,0,0-.932.642,18.886,18.886,0,0,1-6.488-6.487,2.764,2.764,0,0,0,.639-.934,2.8,2.8,0,0,0-.006-2.164,16.837,16.837,0,0,1-1.341-6.6A.993.993,0,0,0,6.955,31H.994A.993.993,0,0,0,0,31.994,24.676,24.676,0,0,0,2.734,43.319,25.237,25.237,0,0,0,13.513,54.1a24.7,24.7,0,0,0,11.328,2.734.993.993,0,0,0,.994-.994V49.879A.993.993,0,0,0,24.841,48.886Z" transform="translate(0 -31)" fill="#fff"/>
</svg>
