<svg xmlns="http://www.w3.org/2000/svg" width="414" height="579.565" viewBox="0 0 414 579.565">
  <path id="bg_watermark" d="M810.544-659a170.272,170.272,0,0,0-21.8-33.787A369.121,369.121,0,0,0,760.954-723.3c-9.809-9.809-20.164-19.618-29.973-28.882-10.354-9.81-20.708-19.074-30.517-29.428-20.163-20.708-39.781-41.961-53.405-67.028,19.074,21.253,40.326,39.236,61.58,57.219s43.051,35.967,63.759,56.13c9.809,10.354,19.618,20.708,28.337,32.7s16.349,24.523,21.254,38.147c5.449,13.624,7.629,28.883,7.084,43.6-1.09,14.714-4.9,28.883-11.989,41.416C824.712-606.682,822.533-635.019,810.544-659Zm50.681,3.815a99.425,99.425,0,0,0-14.169-40.326c-14.169-25.069-35.967-45.231-57.765-64.849-22.343-19.618-45.776-38.692-68.664-59.4-22.343-21.253-45.231-44.141-60.49-74.658a120.033,120.033,0,0,1-13.079-50.136,123.184,123.184,0,0,1,9.264-50.68c13.079-31.607,35.968-58.31,66.485-73.569a111.554,111.554,0,0,1,49.045-11.443c16.893,0,32.7,4.36,47.41,10.354,28.883,13.079,52.861,34.877,69.209,60.49-21.8-21.253-47.411-37.6-75.2-45.231a119.441,119.441,0,0,0-41.416-4.36c-13.624,1.635-26.158,5.449-37.6,12.534-22.888,13.623-40.871,36.511-49.591,61.579a103.482,103.482,0,0,0-5.994,38.146c.545,12.534,4.36,25.069,10.354,37.057a171.209,171.209,0,0,0,22.888,34.331,402.566,402.566,0,0,0,29.427,32.152c20.708,20.708,43.6,41.416,65.394,63.759a316.48,316.48,0,0,1,30.517,35.422c9.264,12.534,17.984,26.158,23.978,41.416a115.537,115.537,0,0,1,8.719,46.866,97.773,97.773,0,0,1-1.09,11.989,84.546,84.546,0,0,1-2.18,11.444,91.686,91.686,0,0,1-8.719,21.253A101.94,101.94,0,0,0,861.224-655.182Zm170.57-431.057a81.668,81.668,0,0,0-56.675-39.781,58.609,58.609,0,0,0-16.894-.545c-5.45,0-10.9,2.18-16.349,3.815a83.24,83.24,0,0,0-29.972,20.163c-17.984,18.528-29.973,43.6-35.422,72.479-8.175-28.337-2.725-61.58,15.259-88.827a102.988,102.988,0,0,1,37.6-32.152c15.8-7.085,33.787-9.809,51.225-6.539a96.368,96.368,0,0,1,74.658,61.579,88.632,88.632,0,0,1,4.359,47.411,127.318,127.318,0,0,1-6.539,21.8c-3.27,7.084-6.539,13.623-11.444,19.073C1047.053-1036.648,1044.328-1064.985,1031.794-1086.239Z" transform="translate(-647 1159)" fill="#4fa0ca" opacity="0.1"/>
</svg>
